<?xml version="1.0" encoding="UTF-8"?>
<svg id="Layer_1" xmlns="http://www.w3.org/2000/svg" version="1.1" viewBox="0 0 40 40">
  <!-- Generator: Adobe Illustrator 29.4.0, SVG Export Plug-In . SVG Version: 2.1.0 Build 152)  -->
  <defs>
    <style>
      .st0 {
        fill: #a6a6a6;
      }

      .st1 {
        fill: none;
        stroke: #3c3c3c;
      }
    </style>
  </defs>
  <circle id="path-1" class="st0" cx="20" cy="20" r="20"/>
  <circle id="Oval" class="st1" cx="20" cy="12" r="5.5"/>
  <path id="Oval-Copy-36" class="st1" d="M20,20.5c-2.6,0-5,1.1-6.7,2.8-1.7,1.7-2.8,4-2.8,6.6s.2.9.6,1.3c.4.5,1.1.9,1.9,1.2,1.9.8,4.5,1.1,7.1,1.1s5.2-.4,7.1-1.1c.8-.3,1.4-.7,1.9-1.2.4-.4.6-.8.6-1.3,0-2.6-1.1-4.9-2.8-6.6-1.7-1.7-4.1-2.8-6.7-2.8Z"/>
</svg>