<?xml version="1.0" encoding="UTF-8"?>
<svg id="Layer_1" xmlns="http://www.w3.org/2000/svg" xmlns:xlink="http://www.w3.org/1999/xlink" version="1.1" viewBox="0 0 40 40">
  <!-- Generator: Adobe Illustrator 29.4.0, SVG Export Plug-In . SVG Version: 2.1.0 Build 152)  -->
  <defs>
    <style>
      .st0 {
        mask: url(#mask);
      }

      .st1 {
        mask: url(#mask-1);
      }

      .st2 {
        fill: #fff;
      }

      .st3 {
        fill: #99b8c9;
      }

      .st4 {
        fill: none;
        stroke: #4e7b94;
      }
    </style>
    <mask id="mask" x="0" y="0" width="40" height="40" maskUnits="userSpaceOnUse">
      <g id="mask-2">
        <circle id="path-11" data-name="path-1" class="st2" cx="20" cy="20" r="20"/>
      </g>
    </mask>
    <mask id="mask-1" x="0" y="0" width="40" height="40" maskUnits="userSpaceOnUse">
      <g id="mask-21" data-name="mask-2">
        <circle id="path-12" data-name="path-1" class="st2" cx="20" cy="20" r="20"/>
      </g>
    </mask>
  </defs>
  <circle id="path-1" class="st3" cx="20" cy="20" r="20"/>
  <g class="st0">
    <circle id="Oval" class="st4" cx="20" cy="12" r="5.5"/>
  </g>
  <g class="st1">
    <path id="Oval-Copy-36" class="st4" d="M20,20.5c-2.6,0-5,1.1-6.7,2.8-1.7,1.7-2.8,4-2.8,6.6s.2.9.6,1.3c.4.5,1.1.9,1.9,1.2,1.9.8,4.5,1.1,7.1,1.1s5.2-.4,7.1-1.1c.8-.3,1.4-.7,1.9-1.2.4-.4.6-.8.6-1.3,0-2.6-1.1-4.9-2.8-6.6-1.7-1.7-4.1-2.8-6.7-2.8Z"/>
  </g>
</svg>