<?xml version="1.0" encoding="UTF-8"?>
<svg id="Layer_1" xmlns="http://www.w3.org/2000/svg" xmlns:serif="http://www.serif.com/" version="1.1" viewBox="0 0 1366 758.9">
  <!-- Generator: Adobe Illustrator 29.4.0, SVG Export Plug-In . SVG Version: 2.1.0 Build 152)  -->
  <defs>
    <style>
      .st0 {
        fill: #fff;
        fill-rule: evenodd;
      }

      .st1 {
        fill: #4e7b94;
      }
    </style>
  </defs>
  <rect id="icon_agendaSetting" class="st1" width="1366" height="758.9"/>
  <path id="Combined-Shape" class="st0" d="M765,142.6h108.3c4.6,0,8.6,4,8.6,8.6v497.8c0,4.6-4,8.6-8.6,8.6h-379c-4.6,0-8.6-4-8.6-8.6V151.2c0-4.6,4-8.6,8.6-8.6h108.3l7.6-34.9c1-4,4.6-6.6,8.6-6.6h131c4,0,7.6,3,8.6,6.6l6.6,34.9ZM864.6,640.5V159.8h-96.1l6.6,31.4c.5,2.5,0,5.1-1.5,7.1s-4,3-6.6,3h-166c-2.5,0-5.1-1-6.6-3s-2-4.6-1.5-7.1l6.6-31.4h-96.1v481.1l361.2-.4ZM616.2,159.8l3.5-17.2,5.1-24.3h116.9l5.1,24.3,3.5,17.2,5.1,24.3h-144.7l5.5-24.3ZM659.7,294.4c0-7.1,5.6-12.6,12.6-12.6h141.2c7.1,0,12.6,5.6,12.6,12.6s-5.6,12.6-12.6,12.6h-141.1c-7.1.1-12.7-5.5-12.7-12.6ZM617.2,255.4c4.6-5.6,12.6-6.1,18.2-1.5,5.6,4.6,6.1,12.6,1.5,18.2l-53.1,61.3c-2.5,3-6.1,4.6-9.6,4.6h-1c-4-.5-7.6-2.5-9.6-5.6l-19.7-30.9c-4-6.1-2-13.7,3.5-17.7,6.1-4,13.7-2,17.7,3.5l1,2,9.1,14.7,24.8-28.8,17.2-19.8ZM813.5,404.7c7.1,0,12.6,5.6,12.6,12.6s-5.6,12.6-12.6,12.6h-141.1c-7.1,0-12.6-5.6-12.6-12.6s5.6-12.6,12.6-12.6h141.1ZM617.2,378.9c4.6-5.6,12.6-6.1,18.2-1.5s6.1,12.6,1.5,18.2l-53.1,61.2c-2.5,3-6.1,4.6-9.6,4.6h-1c-4-.5-7.6-2.5-9.6-5.6l-19.7-30.9c-4-6.1-2-13.7,3.5-17.7,6.1-4,13.7-2,17.7,3.5l1,2,9.1,14.7,24.8-28.8,17.2-19.7ZM813.5,528.1c7.1,0,12.6,5.6,12.6,12.6s-5.6,12.6-12.6,12.6h-141.1c-7.1,0-12.6-5.6-12.6-12.6s5.6-12.6,12.6-12.6h141.1ZM629.9,501.3c5.1,5.1,5.1,13.2,0,18.2l-21.8,21.8,21.8,21.8c5.1,5.1,5.1,13.2,0,18.2-2.5,2.5-5.6,3.5-9.1,3.5s-6.6-1-9.1-3.5l-21.8-21.8-21.8,21.8c-2.5,2.5-5.6,3.5-9.1,3.5s-6.6-1-9.1-3.5c-5.1-5.1-5.1-13.2,0-18.2l21.8-21.8-21.8-21.8c-5.1-5.1-5.1-13.2,0-18.2,5.1-5.1,13.2-5.1,18.2,0l21.8,21.8,21.8-21.8c5-5,13.1-5,18.2,0Z"/>
</svg>