<?xml version="1.0" encoding="UTF-8"?>
<svg id="Layer_1" xmlns="http://www.w3.org/2000/svg" xmlns:serif="http://www.serif.com/" version="1.1" viewBox="0 0 1366 758.9">
  <!-- Generator: Adobe Illustrator 29.4.0, SVG Export Plug-In . SVG Version: 2.1.0 Build 152)  -->
  <defs>
    <style>
      .st0 {
        fill: #fff;
        fill-rule: evenodd;
      }

      .st1 {
        fill: #4e7b94;
      }
    </style>
  </defs>
  <g id="Concepts">
    <rect id="icon_brainstorming" class="st1" width="1366" height="758.9"/>
    <path id="Combined-Shape" class="st0" d="M998.7,466c0,17.7-20.7,19.7-33.4,20.7-1,0-2,0-3,.5q.5.5,1,1c5.1,5.6,12.6,12.6,10.6,22.8-1.5,6.6-5.6,10.6-10.6,13.2,3.5,5.1,6.1,11.1,4,17.7-3.5,11.1-14.2,13.7-20.2,15.2v.5c3.5,11.6,11.6,36.4-6.6,50.1-16.2,11.6-52.1,12.6-97.6,12.1h-6.6c-6.6,15.7-27.8,59.7-64.3,64.3-3.5.5-7.1.5-11.1.5-21.8,0-51.1-6.6-77.4-18.7-26.8,12.1-55.7,18.7-77.4,18.7s-7.6,0-11.1-.5c-36.4-5.1-57.7-48.6-64.3-64.3h-6.6c-45.5.5-81.5-.5-97.6-12.1-18.2-13.2-10.1-37.9-6.6-50.1v-.5c-6.1-1.5-16.7-4-20.2-15.2-2-6.6.5-12.6,4-17.7-4.6-2.5-9.1-7.1-10.6-13.2-2-10.1,5.1-17.7,10.6-22.8l1-1c-1,0-2,0-3-.5-11.6-1-32.4-2.5-32.4-20.7s10.6-27.8,27.3-55.1c8.6-13.7,21.8-34.9,22.3-40,0-106.8,49.6-180.1,132.6-196.3,53.1-10.6,122.4-2,132.6-.5,10.1-1.5,79.4-9.6,132.6.5,83,16.2,132.6,90.1,132.6,196.3.5,5.6,13.7,26.3,22.3,40,16.7,27.3,27.3,44.5,27.3,55.1ZM941.5,483.2c0-11.1,12.6-12.1,22.3-13.2,5.1-.5,16.2-1.5,17.7-3.5,0-6.6-15.7-30.9-24.8-46-15.7-25.3-24.8-40-24.8-49.1,0-141.2-83-172.5-118.9-179.6-21.8-4.6-47.6-5.1-69.8-4.6,59.2,28.3,79.9,96.6,79.9,133.6s-18.2,80.4-35.4,111.8c-16.2,28.8-31.4,56.7-31.4,95.1s-5.6,26.8-11.6,31.9c4,6.6,8.1,16.2,8.1,28.8,0,18.2-9.1,35.9-26.8,51.6-6.6,6.1-14.2,11.1-22.3,16.2,24.8,9.6,50.6,13.7,66.8,11.6,27.8-4,48.1-44,53.1-58.7,1-3.5,4.6-5.6,8.1-5.6h12.1c29.8,0,74.4.5,87.5-9.1,7.6-5.6,4-18.7.5-30.9-1.5-4.6-2-7.1-2-10.1,0-9.1,9.6-11.6,13.7-12.6,4-1,7.1-2,8.1-3.5-.5-2-4.6-6.6-8.6-9.6-3-2-4-5.6-3.5-9.1,1-3.5,4-6.1,7.6-6.1,4.6-.5,10.1-2.5,10.6-4.6,0-1.5-4-5.6-6.1-7.6-5.1-5.1-10.1-10.1-10.1-17.2ZM597.5,667.3c16.2,2,42-2.5,66.8-11.6-8.1-5.1-15.7-10.1-22.3-16.2-17.7-15.7-26.8-33.4-26.8-51.6s4-22.3,8.1-28.8c-5.6-5.1-11.6-14.7-11.6-31.9,0-38.5-15.2-66.3-31.4-95.1-17.7-31.4-35.4-63.7-35.4-111.8s20.7-105.7,79.9-133.6c-22.3-.5-47.6.5-69.8,4.6-35.9,7.1-118.9,38.5-118.9,179.6s-9.1,23.8-24.8,49.1c-9.1,14.7-24.8,39.5-24.8,46,1.5,2.5,13.2,3.5,17.7,3.5,10.1,1,22.3,2,22.3,13.2s-5.1,12.6-9.6,17.2c-2,2-5.6,6.1-6.1,7.6.5,1.5,6.1,4,10.6,4,3.5.5,6.6,3,7.6,6.1,1,3.5-.5,7.1-3.5,9.1-4,3-8.1,7.6-8.6,9.6,1,1.5,4,2.5,8.1,3.5,4.6,1,13.7,3,13.7,12.6s-1,5.6-2,10.1c-3.5,12.1-7.1,25.3.5,30.9,13.2,9.6,57.7,9.1,87.5,9.1h12.1c3.5,0,6.6,2.5,8.1,5.6,0,1,18.7,54.6,52.6,59.2ZM731.6,547.9c1.5-.5,8.6-4,8.6-20.7,0-43,17.2-73.9,33.9-103.7,17.2-30.9,33.4-59.7,33.4-103.2s-29.8-129.5-122.9-129.5-123.4,87.5-123.4,129.5,16.2,72.9,33.4,103.2c16.7,29.8,33.9,60.2,33.9,103.7s6.6,20.2,8.6,20.7h94.6ZM728.5,565.1h-89c-2.5,3.5-7.6,11.1-7.6,22.8s7.1,25.8,21.2,38.5c8.6,7.6,19.2,14.7,30.9,20.2,11.6-5.6,22.3-12.6,30.9-20.2,14.2-12.6,21.2-25.3,21.2-38.5s-4.6-19.2-7.6-22.8ZM681,149.8c-4.6,0-8.6-4-8.6-8.6v-56.7c0-4.6,3.5-8.6,8.6-8.6s8.6,4,8.6,8.6v56.7c0,4.6-4,8.6-8.6,8.6ZM597,141.7l-20.7-38.5c-2-4-.5-9.1,3.5-11.6,4-2,9.1-.5,11.6,3.5l20.7,38.5c2,4,.5,9.1-3.5,11.6-1.5.5-2.5,1-4,1-3.5,0-6.1-1.5-7.6-4.6ZM753.8,145.2c-4-2-5.6-7.6-3.5-11.6l20.7-38.5c2-4,7.1-5.6,11.6-3.5,4,2,5.6,7.6,3.5,11.6l-20.7,38.5c-1.5,3-4.6,4.6-7.6,4.6s-2.5-.5-4-1ZM655.2,226.1c4.6-2,9.1.5,11.1,4.6,1.5,4.6-.5,9.6-4.6,11.1-9.1,3.5-16.7,8.6-23.8,15.2-1.5,1.5-3.5,2-5.6,2s-4.6-1-6.1-3c-3-3.5-2.5-9.1.5-12.1,8.1-7.6,17.7-13.7,28.3-17.7ZM612.7,273.7c4,2,6.1,7.1,4,11.6-11.6,24.3-11.6,48.1-11.6,48.6,0,4.6-3.5,8.6-8.6,8.6s-8.6-3.5-8.6-8.6,0-27.8,13.2-56.2c2.5-4,7.6-6.1,11.6-4Z"/>
  </g>
</svg>