<?xml version="1.0" encoding="UTF-8"?>
<svg id="Layer_1" xmlns="http://www.w3.org/2000/svg" version="1.1" viewBox="0 0 1366 758.9">
  <!-- Generator: Adobe Illustrator 29.4.0, SVG Export Plug-In . SVG Version: 2.1.0 Build 152)  -->
  <defs>
    <style>
      .st0 {
        fill: #4e7b94;
      }

      .st1 {
        fill: #fff;
      }

      .st2 {
        fill: none;
        stroke: #fff;
        stroke-linecap: round;
        stroke-linejoin: round;
        stroke-width: 20.8px;
      }
    </style>
  </defs>
  <rect id="icon_textCommenting" class="st0" width="1366" height="758.9"/>
  <g>
    <path class="st2" d="M619.1,252.1v-97.5c0-22.7,18.7-41.9,41.9-41.9h334c22.7,0,41.9,18.7,41.9,41.9v264.3c0,22.7-18.7,41.9-41.9,41.9h-79.8l-55.6,46.5v-46.5h-112.7"/>
    <path class="st2" d="M450.8,599.8l55.6,46.5v-46.5h198.6c22.7,0,41.9-18.7,41.9-41.9v-264.3c0-22.7-18.7-41.9-41.9-41.9h-334c-22.7,0-41.9,18.7-41.9,41.9v264.3c0,22.7,18.7,41.9,41.9,41.9,0,0,79.8,0,79.8,0Z"/>
    <g>
      <circle class="st1" cx="629.2" cy="425.9" r="15.2"/>
      <circle class="st1" cx="537.7" cy="425.9" r="15.2"/>
      <circle class="st1" cx="446.3" cy="425.9" r="15.2"/>
    </g>
  </g>
</svg>