<?xml version="1.0" encoding="UTF-8"?>
<svg id="Layer_1" xmlns="http://www.w3.org/2000/svg" xmlns:serif="http://www.serif.com/" version="1.1" viewBox="0 0 1366 758.9">
  <!-- Generator: Adobe Illustrator 29.4.0, SVG Export Plug-In . SVG Version: 2.1.0 Build 152)  -->
  <defs>
    <style>
      .st0 {
        fill: #4e7b94;
      }

      .st1 {
        stroke-miterlimit: 10;
        stroke-width: 10.4px;
      }

      .st1, .st2 {
        fill: none;
        stroke: #fff;
      }

      .st3 {
        fill: #fff;
      }

      .st2 {
        stroke-linecap: round;
        stroke-linejoin: round;
        stroke-width: 20.8px;
      }
    </style>
  </defs>
  <rect id="icon_spatialBrainstroming" class="st0" width="1366" height="758.9"/>
  <g>
    <circle class="st3" cx="639.1" cy="635.6" r="12.2"/>
    <g>
      <polyline class="st2" points="794.7 492.5 794.7 681.7 483 681.7 483 76.2 794.7 76.2 794.7 232.6"/>
      <polyline class="st2" points="794.7 492.5 794.7 589.5 483 589.5 483 168.9 794.7 168.9 794.7 232.6"/>
      <path class="st2" d="M594.1,121.7h90"/>
      <path class="st1" d="M955.2,234.5h-249.4c-26.1,0-47.8,22.2-47.8,49.4v152.8c0,27.2,21.7,49.4,47.8,49.4h88.9v67.8l65-67.8h95.6c26.1,0,47.8-22.2,47.8-49.4v-152.8c0-27.2-21.8-49.4-47.9-49.4Z"/>
      <path class="st2" d="M955.2,234.5h-249.4c-26.1,0-47.8,22.2-47.8,49.4v152.8c0,27.2,21.7,49.4,47.8,49.4h88.9v67.8l65-67.8h95.6c26.1,0,47.8-22.2,47.8-49.4v-152.8c0-27.2-21.8-49.4-47.9-49.4Z"/>
    </g>
  </g>
</svg>