<?xml version="1.0" encoding="UTF-8"?>
<svg id="Layer_1" xmlns="http://www.w3.org/2000/svg" xmlns:serif="http://www.serif.com/" version="1.1" viewBox="0 0 1366 758.9">
  <!-- Generator: Adobe Illustrator 29.4.0, SVG Export Plug-In . SVG Version: 2.1.0 Build 152)  -->
  <defs>
    <style>
      .st0 {
        fill: #fff;
        fill-rule: evenodd;
      }

      .st1 {
        fill: #4e7b94;
      }
    </style>
  </defs>
  <rect id="icon_spatialBrainstroming" class="st1" width="1366" height="758.9"/>
  <g id="Concepts">
    <path id="Fill-1" class="st0" d="M960.8,173.7l-148.4-31.3h-262.2c-4.7,0-8.5,3.8-8.5,8.5v53.1l-138-24.7c-2.4-.5-5.2,0-7.1,1.9-1.9,1.4-3.3,4.3-3.3,6.6v389.2c0,4.3,2.8,7.6,7.1,8.5l173.5,30.8h211.4c4.7,0,8.5-3.8,8.5-8.5v-57.8l163.1,29.4c2.4.5,5.2,0,7.1-1.9,1.9-1.9,3.3-4.3,3.3-6.6V181.8c0-3.8-2.8-7.1-6.6-8.1ZM950.4,560.5l-156-28v-141.3c7.1-10.4,12.8-21.3,17.1-32.7h2.8c41.7,0,88.7-41.7,88.7-97.7s-6.2-40.8-18.5-50.7c-18-14.2-43.1-9-58.3-5.2-2.4.5-5.2.9-7.1,1.4v-45l130.8,27.5.5,371.7ZM410.9,198.4l66.4,11.9-.5.5c-12.3,10-18.5,27-18.5,50.7,0,55.9,46.5,97.7,88.7,97.7h3.3c4.3,10.9,10,21.8,17.1,31.8v206.7l-156-28-.5-371.2ZM819.1,317.3v-93.9c2.8,0,6.2-.9,10.9-1.9,12.8-2.8,32.2-7.1,43.6,1.9,8.1,6.2,11.9,19,11.9,37.5,0,44.6-37,78.7-69.2,80.1,1.9-7.6,2.8-15.6,2.8-23.7ZM776.9,530.7c-19-2.8-61.6-16.6-63.1-80.1,23.7-7.1,45.5-20.9,63.1-38.4v118.5ZM647,450.6c-1.4,63.5-44.1,77.3-63.1,80.1v-119.5c18,18,39.8,32.2,63.1,39.3ZM487.7,224c11.4-9.5,30.8-4.7,43.6-1.9,4.7.9,8.1,1.9,10.9,1.9v93.9c0,8.1.9,16.1,2.8,24.2-32.7-1.4-69.2-36-69.2-80.1-.5-19,3.8-31.8,11.9-37.9ZM626.6,531.6c19-13.3,36.5-37,37.5-78.7h32.7c1.4,42.2,18.5,65.4,37.5,78.7h-107.6ZM559.3,207.4v-47.4h242.3v157.9c0,12.8-2.8,25.6-7.6,37.5-4.3,10.4-10,20.9-17.1,30.3-18,23.7-44.1,42.7-72.5,49.8h-47.4c-28.4-7.1-54.5-26.1-72.5-49.8-7.1-9.5-12.8-19.9-17.1-30.3-4.7-12.3-7.6-25.1-7.6-37.5v-92.9l-.5-17.5ZM776.9,548.7v50.7h-192.9v-50.7h192.9ZM659.8,345.3h16.6v-117.1h-16.6c-4.7,0-8.5-3.8-8.5-8.5s3.8-8.5,8.5-8.5h25.1c4.7,0,8.5,3.8,8.5,8.5v126.1h16.6c4.7,0,8.5,3.8,8.5,8.5s-3.8,8.5-8.5,8.5h-50.3c-4.7,0-8.5-3.8-8.5-8.5s3.8-9,8.5-9Z"/>
  </g>
</svg>