<?xml version="1.0" encoding="UTF-8"?>
<svg id="Layer_1" xmlns="http://www.w3.org/2000/svg" xmlns:serif="http://www.serif.com/" version="1.1" viewBox="0 0 1366 758.9">
  <!-- Generator: Adobe Illustrator 29.4.0, SVG Export Plug-In . SVG Version: 2.1.0 Build 152)  -->
  <defs>
    <style>
      .st0 {
        fill: #fff;
        fill-rule: evenodd;
      }

      .st1 {
        fill: #4e7b94;
      }
    </style>
  </defs>
  <g id="Concepts">
    <rect id="icon_spatialBrainstroming" class="st1" width="1366" height="758.9"/>
    <path id="bulbmap-copy" class="st0" d="M786.2,208.9l168,30.4c4,.5,7.1,4,7.1,8.1v378.4c0,2.5-1,5.1-3,6.6-2,1.5-4.6,2-7.1,2l-165.9-29.8-41.5,13.2c-9.6,29.8-35.4,52.6-64.3,52.6s-30.4-6.6-42.5-17.7l-54.1,17.7c-.5,0-1.5.5-4,0l-168-30.4c-4-.5-7.1-4-7.1-8.1V253c0-2.5,1-5.1,3-6.6s4.6-2,7.1-2l141.2,25.3c17.2-43.5,55.7-88.5,127-88.5s66.8,12.6,88,31.4c0,0,11.6-3.5,12.1-4,.5,0,1,0,2-.5q.5,1,2,1ZM723.5,624.3c3-6.1,5.6-12.6,7.1-19.7.5-4,1-8.1,1-12.6,0-12.1-5.1-22.8-8.1-27.8h-87c-3,5.1-8.1,15.7-8.1,27.8s5.6,30.4,14.2,41c4,5.1,9.1,9.6,14.2,13.2,7.6,4.6,15.7,7.6,23.3,7.6,16.2,0,33.4-11.1,43.5-29.3ZM572.7,273.2c-2,5.6-4,10.6-5.6,16.2-4,13.2-5.6,25.8-5.6,35.9,0,22.8,4.6,41.5,11.6,58.7,4.6,11.6,10.6,22.8,16.7,33.9,1.5,3,3,5.6,5.1,8.6,16.2,28.8,33.4,59.2,33.4,101.2s6.6,19.7,8.6,20.2h94.1c1.5-.5,8.1-4,8.1-20.2,0-42,17.2-72.3,33.4-101.2,1.5-3,3-5.6,5.1-8.6,6.1-11.1,12.1-21.8,16.7-33.9,7.1-17.2,11.6-35.9,11.6-58.7s-3.5-32.9-11.6-52.1c-4-10.1-9.6-19.7-16.7-28.8-3-4-6.6-8.1-10.1-11.6-4.6-4.6-9.6-9.1-14.7-12.6-17.7-12.6-40-20.7-68.8-20.7-62.2-1-95.6,36.4-111.3,73.9ZM572.7,651.6v-229.7c-14.7-26.8-28.3-56.2-28.3-96.6s2-24.3,6.1-39l-129-23.3v361.7l151.3,26.8ZM589.4,650.6l36.4-11.6c-9.1-13.2-14.2-29.3-14.2-46.5s5.6-27.3,9.6-34.9c-5.6-5.1-10.1-14.2-10.1-30.4,0-29.8-9.6-53.1-21.8-75.4v198.8ZM748.3,599l28.3-9.1v-138.1c-12.1,22.3-21.8,45.5-21.8,75.4s-8.1,29.3-14.7,33.4c3.5,7.6,8.1,18.7,8.1,31.4v7.1ZM944.6,616.2V254.5l-151.3-27.3v11.1c20.2,29.3,28.3,63.7,28.3,86.5,0,40.5-13.7,69.8-28.3,96.6v167l151.3,27.8ZM680,157.8c-4.6,0-8.6-3.5-8.6-8.6v-54.6c0-4.6,3.5-8.6,8.6-8.6s8.6,3.5,8.6,8.6v55.1c0,4.6-4,8.1-8.6,8.1ZM596.5,150.3l-20.2-37.4c-2-4-.5-9.1,3.5-11.1,4-2,9.1-.5,11.1,3.5l20.2,37.4c2,4,.5,9.1-3.5,11.1-1.5.5-2.5,1-4,1-2.5,0-5.6-1.5-7.1-4.6ZM752.3,153.8c-4-2-5.6-7.1-3.5-11.1l20.2-37.4c2-4,7.1-5.6,11.1-3.5s5.6,7.1,3.5,11.1l-20.2,37.4c-1.5,2.5-4.6,4.6-7.6,4.6s-2-.5-3.5-1ZM625.3,262.1c-.5-.5-1-1-1-1.5-2-3.5-1-7.6,1.5-10.1,8.1-7.6,17.7-13.2,28.3-17.7,4-1.5,9.1.5,11.1,4.6,1.5,4-.5,9.1-4.6,11.1-1.5.5-3,1-4,2-7.1,3.5-13.7,7.6-19.2,12.6-1.5,1.5-3.5,2-5.6,2-3,0-5.1-1-6.6-3ZM596.5,346.6c-3,0-5.6-1.5-7.1-4-1-1.5-1.5-3-1.5-4.6s0-6.6,1.5-15.7c1.5-9.6,4.6-22.8,10.6-36.9.5-1,.5-1.5,1-2.5,2-4,7.1-6.1,11.1-4,1,.5,1.5,1,2,1.5,2.5,2.5,3,6.1,1.5,9.6-11.1,23.8-11.6,47.1-11.6,47.6.5,5.1-3,9.1-7.6,9.1Z"/>
  </g>
</svg>