<?xml version="1.0" encoding="UTF-8"?>
<svg id="Layer_1" xmlns="http://www.w3.org/2000/svg" xmlns:serif="http://www.serif.com/" version="1.1" viewBox="0 0 1366 758.9">
  <!-- Generator: Adobe Illustrator 29.4.0, SVG Export Plug-In . SVG Version: 2.1.0 Build 152)  -->
  <defs>
    <style>
      .st0 {
        fill: #fff;
        fill-rule: evenodd;
      }

      .st1 {
        fill: #4e7b94;
      }
    </style>
  </defs>
  <g id="Concepts">
    <rect id="icon_buergerhaushalt" class="st1" width="1366" height="758.9"/>
    <path id="Fill-1" class="st0" d="M753.8,282.8v-40.5c.5,0,1-.5,1.5-.5,27.8-21.8,46.5-58.2,46.5-90.6s-5.1-35.4-15.2-43.5c-15.7-11.6-37.4-5.6-60.7,1-14.7,4-29.3,8.1-43,8.1s-28.3-4-43-8.1c-23.3-6.6-45.5-12.6-60.7-1-10.1,7.6-15.2,21.8-15.2,43,0,30.9,17.2,65.8,42.5,87.5v46c-90.1,32.9-156.3,151.3-156.3,238.8s126,134.6,232.2,134.6,232.2-23.3,232.2-134.6-68.8-210-160.9-240.3ZM682.5,638.5c-141.2,0-213-39-213-115.4s77.9-198.8,147.7-222.1h130.5c69.8,22.8,147.7,122.4,147.7,222.1s-71.8,115.4-213,115.4ZM582.8,151.3c0-10.1,1.5-23.3,7.6-27.8,2.5-2,6.1-2.5,10.6-2.5,9.1,0,21.8,3.5,33.4,6.6,15.7,4.6,31.9,9.1,48.1,9.1s32.4-4.6,48.1-9.1c17.7-5.1,35.9-10.1,44-4,6.6,4.6,7.6,17.7,7.6,28.3,0,25.3-14.7,55.1-36.4,73.4h-126.5c-21.8-18.7-36.4-48.6-36.4-73.9ZM625.3,281.8v-37.9h109.3v37.9h-109.3ZM690.6,544.4c19.7,0,38.5-7.6,52.6-21.8,3.5-3.5,9.6-3.5,13.7,0,3.5,3.5,3.5,9.6,0,13.7-17.7,17.7-41,27.3-66.3,27.3-40,0-73.9-25.3-87-60.2h-23.8c-5.1,0-9.6-4-9.6-9.6s4-9.6,9.6-9.6h18.7c-.5-4.6-1-9.1-1-14.2s.5-9.6,1-14.2h-18.7c-5.1,0-9.6-4-9.6-9.6s4-9.6,9.6-9.6h23.8c13.7-34.9,47.6-60.2,87-60.2s48.6,9.6,66.3,27.3,3.5,9.6,0,13.7c-3.5,3.5-9.6,3.5-13.7,0-14.2-14.2-32.9-21.8-52.6-21.8-28.8,0-54.1,16.7-66.3,41h54.6c5.1,0,9.6,4,9.6,9.6s-4,9.6-9.6,9.6h-61.2c-1,4.6-1.5,9.1-1.5,14.2s.5,9.6,1.5,14.2h61.2c5.1,0,9.6,4,9.6,9.6s-4,9.6-9.6,9.6h-54.6c12.1,24.3,37.4,41,66.3,41Z"/>
  </g>
</svg>