<?xml version="1.0" encoding="UTF-8"?>
<svg id="Layer_1" xmlns="http://www.w3.org/2000/svg" xmlns:serif="http://www.serif.com/" version="1.1" viewBox="0 0 1366 758.9">
  <!-- Generator: Adobe Illustrator 29.4.0, SVG Export Plug-In . SVG Version: 2.1.0 Build 152)  -->
  <defs>
    <style>
      .st0 {
        fill: #fff;
        fill-rule: evenodd;
      }

      .st1 {
        fill: #4e7b94;
      }
    </style>
  </defs>
  <rect id="icons_spatialChallenge-Copy-8" class="st1" y="-1.8" width="1366" height="762.4"/>
  <g id="Fill-1">
    <path class="st0" d="M940.5,168.2l58.2,10.6c4.6,1,7.6,4.6,7.6,9.1v422.4c0,2.5-1,5.1-3,7.1-2,1.5-4.6,2.5-7.6,2l-184.2-32.9c-149.8,48.1-224.6,71.8-224.6,71.8-1,0-1.5.5-4,.5l-186.7-33.4c-4.6-1-7.6-4.6-7.6-9.1v-301.5c-13.7-26.3-24.3-56.7-24.3-87,0-47.6,38.5-86.5,85.5-86.5s74.9,28.8,83.5,67.8l50.1,9.1,193.3-63.2c12.6-32.4,43.5-55.7,79.9-55.7,41.5.5,75.9,29.8,84,68.8ZM988.1,599.3V195.5l-45.5-8.1c-.5,79.4-75.9,160.9-78.9,164.4-1.5,2-4,3-6.6,3s-5.1-1-6.6-3c-1.5-1.5-14.7-16.2-30.4-37.9v256l168,29.3ZM593.5,637.2l207.9-67.3v-285.8c-16.2-28.8-30.4-63.7-30.4-98.1s0-6.6.5-9.6l-178.1,57.7v91.1c10.1-4,20.7-6.1,31.9-6.1,47.1,0,85.5,38.5,85.5,86,0,79.9-75.9,161.9-78.9,165.4-1.5,2-4,3-6.6,3s-5.1-1-6.6-3c-1-1-12.1-13.2-25.3-30.9,0-.5,0,97.6,0,97.6ZM406.8,608.9l168.5,30.4v-127.5c-18.2-30.4-35.4-68.8-35.4-106.8s14.2-54.1,35.4-69.8v-100.2l-39.5-7.1c0,79.9-75.9,161.9-78.9,164.9-1.5,2-4,3-6.6,3s-5.1-1-6.6-3c-1.5-1.5-18.7-19.7-36.4-47.1l-.5,263.1ZM517.6,227.9c0-37.4-30.4-67.8-67.3-67.8s-67.3,30.4-67.3,67.8c0,59.7,49.1,123.4,67.3,144.7,17.7-21.8,67.3-85.5,67.3-144.7ZM625.3,337.2c-37.4,0-67.3,30.4-67.3,67.8,0,59.7,49.1,123.4,67.3,144.7,18.2-21.8,67.3-86,67.3-144.7s-29.8-67.8-67.3-67.8ZM924.3,185.9c0-37.4-30.4-67.8-67.3-67.8s-67.8,30.4-67.8,67.8c0,59.7,49.1,123.4,67.3,144.7,18.2-21.2,67.8-85.5,67.8-144.7ZM642.5,465.7h-30.4c-5.1,0-9.1-4-9.1-9.1s4-9.1,9.1-9.1h6.1v-62.7h-6.1c-5.1,0-9.1-4-9.1-9.1s4-9.1,9.1-9.1h15.2c5.1,0,9.1,4,9.1,9.1v71.8h6.1c5.1,0,9.1,4,9.1,9.1s-4,9.1-9.1,9.1ZM473.5,231c5.1,5.6,8.1,13.2,8.1,20.7,0,17.7-14.2,31.9-31.9,31.9s-26.8-9.6-30.4-22.8c-1.5-5.1,1.5-10.1,6.1-11.1,5.1-1.5,10.1,1.5,11.1,6.1,1.5,5.6,7.1,9.6,13.2,9.6s13.7-6.1,13.7-13.7-2-8.6-5.6-11.1h-7.6c-5.1,0-9.1-4-9.1-9.1s4-9.1,9.1-9.1h7.1c2.5-2,3.5-5.1,3.5-8.1,0-6.1-5.1-11.1-11.1-11.1s-9.1,3-10.6,8.1-6.6,7.6-11.1,6.1c-5.1-1.5-7.6-6.6-6.1-11.1,3.5-12.1,15.2-20.7,27.8-20.7s29.3,13.2,29.3,29.3c-.5,5.6-2.5,11.6-5.6,16.2ZM878.3,225.4c5.1,0,9.1,4,9.1,9.1s-4,9.1-9.1,9.1h-43c-3.5,0-6.6-2-8.1-5.1s-1-6.6,1-9.6l36.9-49.1c1-1.5,1.5-3.5,1.5-5.6,0-6.1-5.1-11.1-11.1-11.1s-11.1,5.1-11.1,11.1-4,9.1-9.1,9.1-9.1-4-9.1-9.1c0-16.2,13.2-29.3,29.3-29.3s29.3,13.2,29.3,29.3-1.5,11.1-5.1,16.2c0,.5-.5.5-.5,1l-25.8,34.4h24.8v-.5Z"/>
  </g>
</svg>