<?xml version="1.0" encoding="UTF-8"?>
<svg id="Layer_1" xmlns="http://www.w3.org/2000/svg" xmlns:serif="http://www.serif.com/" version="1.1" viewBox="0 0 1366 758.9">
  <!-- Generator: Adobe Illustrator 29.4.0, SVG Export Plug-In . SVG Version: 2.1.0 Build 152)  -->
  <defs>
    <style>
      .st0 {
        fill: #fff;
        fill-rule: evenodd;
      }

      .st1 {
        fill: #4e7b94;
      }
    </style>
  </defs>
  <rect id="icon_poll" class="st1" width="1366" height="758.9"/>
  <path id="Combined-Shape" class="st0" d="M535.8,253c69.3,0,126,57.2,126,128s-56.7,128-126,128-126-57.7-126-128,56.7-128,126-128ZM535.8,491.3c60.2,0,108.8-49.6,108.8-110.8s-49.1-110.8-108.8-110.8-108.8,49.6-108.8,110.8c-.5,61.2,48.6,110.8,108.8,110.8ZM830.7,253c69.3,0,126,57.2,126,128s-56.7,128-126,128-126-57.2-126-128,56.7-128,126-128ZM830.7,491.3c60.2,0,108.8-49.6,108.8-110.8s-49.1-110.8-108.8-110.8-108.8,49.6-108.8,110.8,49.1,110.8,108.8,110.8ZM597.5,317.7c5.1,5.1,5.1,13.2,0,18.2l-44.5,45,44.5,45c5.1,5.1,5.1,13.2,0,18.2s-5.6,3.5-9.1,3.5-6.6-1-9.1-3.5l-44.5-45-44.5,45c-2.5,2.5-5.6,3.5-9.1,3.5s-6.6-1-9.1-3.5c-5.1-5.1-5.1-13.2,0-18.2l44.5-45-44.5-45c-5.1-5.1-5.1-13.2,0-18.2s13.2-5.1,17.7,0l44.5,45,44.5-45c6.1-5.1,14.2-5.1,18.7,0Z"/>
</svg>