<?xml version="1.0" encoding="UTF-8"?>
<svg id="Layer_1" xmlns="http://www.w3.org/2000/svg" xmlns:serif="http://www.serif.com/" version="1.1" viewBox="0 0 1366 758.9">
  <!-- Generator: Adobe Illustrator 29.4.0, SVG Export Plug-In . SVG Version: 2.1.0 Build 152)  -->
  <defs>
    <style>
      .st0 {
        fill: #fff;
        fill-rule: evenodd;
      }

      .st1 {
        fill: #4e7b94;
      }
    </style>
  </defs>
  <g id="Concepts">
    <rect id="icon_priorization" class="st1" width="1366" height="758.9"/>
    <path id="Combined-Shape" class="st0" d="M719.4,295h253.5v-50.1h-253.5v50.1ZM981.5,227.7c4.6,0,8.6,4,8.6,8.6v66.8c0,4.6-3.5,8.6-8.6,8.6h-270.7c-4.6,0-8.6-4-8.6-8.6v-66.8c0-4.6,3.5-8.6,8.6-8.6h270.7ZM981.5,354.1c4.6,0,8.6,4,8.6,8.6v66.8c0,4.6-3.5,8.6-8.6,8.6h-270.7c-4.6,0-8.6-4-8.6-8.6v-66.8c0-4.6,3.5-8.6,8.6-8.6h270.7ZM719.4,420.9h253.5v-50.1h-253.5v50.1ZM981.5,480.6c4.6,0,8.6,4,8.6,8.6v66.8c0,4.6-3.5,8.6-8.6,8.6h-270.7c-4.6,0-8.6-4-8.6-8.6v-66.8c0-4.6,3.5-8.6,8.6-8.6h270.7ZM719.4,547.4h253.5v-50.1h-253.5v50.1ZM653.7,480.6c4.6,0,8.6,4,8.6,8.6v66.8c0,4.6-3.5,8.6-8.6,8.6h-98.7c-93.1,0-137.1-46-157.8-84.5-21.8-40-22.8-79.4-22.8-83.5-.5-5.6-3.5-69.8,40-117.4,27.8-30.9,68.8-47.1,120.9-48.6v-29.8c0-3,1.5-6.1,4.6-7.6,2.5-1.5,6.1-1.5,8.6.5l108.3,71.3c2.5,1.5,4,4,4,7.1s-1.5,5.6-3.5,7.1l-108.3,72.3c-2.5,1.5-6.1,2-8.6.5-2.5-1.5-4.6-4.6-4.6-7.6v-29.3c-27.8,1.5-48.6,9.6-62.2,25.3-20.2,23.3-17.2,54.6-17.2,55.1v1c0,3.5,2.5,84.5,98.1,84.5h99.2v-.5ZM645.1,547.4v-50.1h-90.1c-108.8,0-114.8-93.1-115.4-100.7-.5-4-3-40.5,21.2-67.8,18.2-20.7,46-31.4,83.5-31.4s8.6,4,8.6,8.6v22.3l84.5-56.2-84.5-55.7v22.8c0,4.6-3.5,8.6-8.6,8.6-51.6,0-91.1,14.7-117.4,43-39.5,43-35.4,104.2-35.4,104.7v.5c0,6.1,2,151.3,163.4,151.3h90.1Z"/>
  </g>
</svg>