<?xml version="1.0" encoding="UTF-8"?>
<svg id="Layer_1" xmlns="http://www.w3.org/2000/svg" xmlns:serif="http://www.serif.com/" version="1.1" viewBox="0 0 1366 758.9">
  <!-- Generator: Adobe Illustrator 29.4.0, SVG Export Plug-In . SVG Version: 2.1.0 Build 152)  -->
  <defs>
    <style>
      .st0 {
        fill: #fff;
        fill-rule: evenodd;
      }

      .st1 {
        fill: #4e7b94;
      }
    </style>
  </defs>
  <g id="Concepts">
    <rect id="icon_textCommenting" class="st1" width="1366" height="758.9"/>
    <path id="Combined-Shape" class="st0" d="M813,101.2c32.4,0,58.7,26.8,58.7,59.7v371.9c0,32.9-26.3,59.7-58.7,59.7h-97.1l-66.3,67.3c-1.5,1.5-3.5,2.5-6.1,2.5s-2,0-3-.5c-3-1.5-5.1-4.6-5.1-8.1v-61.2h-85.5c-32.4,0-58.7-26.8-58.7-59.7V160.9c0-32.9,26.3-59.7,58.7-59.7h263.1ZM855,533.2V160.9c0-23.8-18.7-42.5-42-42.5h-263.1c-23.3,0-42,19.2-42,42.5v371.9c0,23.8,18.7,42.5,42,42.5h94.1c4.6,0,8.6,4,8.6,8.6v49.1l54.1-55.1c1.5-1.5,3.5-2.5,6.1-2.5h100.7c22.8.5,41.5-18.7,41.5-42ZM801.4,246.9q0,.5.5,1v255c0,4.6-3.5,8.6-8.6,8.6h-210c-4.6,0-8.6-4-8.6-8.6V181.6c0-4.6,3.5-8.6,8.6-8.6h144.2q.5,0,1,.5h.5c.5,0,.5.5,1,.5h.5c.5.5,1,.5,1.5,1l66.8,67.8c.5.5.5,1,1,1.5v.5c1,.5,1.5,1,1.5,2,0-.5,0,0,0,0ZM591.9,494.3h193.3v-236.3h-58.7c-4.6,0-8.6-4-8.6-8.6v-59.2h-126v304.1ZM735.1,202.4v39h37.9l-37.9-39ZM759.9,328.3c4.6,0,8.6,4,8.6,8.6s-3.5,8.6-8.6,8.6h-142.7c-4.6,0-8.6-4-8.6-8.6s3.5-8.6,8.6-8.6h142.7ZM759.9,376.9c4.6,0,8.6,4,8.6,8.6s-3.5,8.6-8.6,8.6h-142.7c-4.6,0-8.6-4-8.6-8.6s3.5-8.6,8.6-8.6h142.7ZM759.9,425c4.6,0,8.6,4,8.6,8.6s-3.5,8.6-8.6,8.6h-142.7c-4.6,0-8.6-4-8.6-8.6s3.5-8.6,8.6-8.6h142.7Z"/>
  </g>
</svg>