<?xml version="1.0" encoding="UTF-8"?>
<svg id="Layer_1" xmlns="http://www.w3.org/2000/svg" xmlns:xlink="http://www.w3.org/1999/xlink" version="1.1" viewBox="0 0 174.4 139.6">
  <!-- Generator: Adobe Illustrator 29.2.0, SVG Export Plug-In . SVG Version: 2.1.0 Build 108)  -->
  <defs>
    <style>
      .st0 {
        fill: none;
      }
    </style>
  </defs>
  <g>
    <g id="Ebene_1-2">
      <line class="st0" x1="66.7" y1="94.2" x2="66.7" y2="94.1"/>
      <line class="st0" x1="66.6" y1="94.2" x2="66.6" y2="94.2"/>
      <g>
        <line class="st0" x1="66.7" y1="94.2" x2="66.7" y2="94.1"/>
        <line class="st0" x1="66.6" y1="94.2" x2="66.6" y2="94.2"/>
        <g>
          <polygon points="27.9 0 0 33.3 0 73.4 61.5 0 27.9 0"/>
          <g>
            <polygon points="94.6 0 59.7 41.6 76.8 61.4 128.3 0 94.6 0"/>
            <polygon points="51.6 32.2 34.4 52.7 41.3 61.4 76.8 61.4 51.6 32.2"/>
          </g>
        </g>
      </g>
    </g>
    <path d="M40.1,104.6h-5.4l23.7.2L17.3,52.7,0,73.4l25.1,31.4h33.2"/>
    <path d="M128.3,79.2V0l-26.7,31.8v72.9"/>
    <path d="M101.6,104.5v.3h26.7v-25.7h-.1"/>
    <path d="M145.8,0v104.9h28.6V0h-28.6Z"/>
  </g>
  <path d="M16.1,127.8l-2.2-1.4c2-.6,3.5-1.7,4.7-3.3,1.2-1.6,1.8-3.6,1.8-6.2s-.3-3.1-1-4.2-1.5-2-2.6-2.7-2.4-1.1-3.7-1.4-2.8-.4-4.2-.4h-2c-.7,0-1.5,0-2.3,0-.8,0-1.6,0-2.3.2-.8,0-1.5.2-2.2.3v30.5h6v-12.6l3.2.6,7,12.1h7.9s-8-11.8-8-11.7h0ZM8.6,122.8h-2.6v-8.9c.3,0,.8-.2,1.4-.2h1.8c1.6,0,2.8.4,3.6,1.1s1.2,1.8,1.2,3.1-.5,3-1.5,3.8-2.3,1.1-4,1.1h0Z"/>
  <path d="M62.8,116.9c-.5-2-1.3-3.7-2.4-5.1-1.1-1.4-2.5-2.5-4.1-3.3s-3.6-1.1-5.8-1.1h0c-4.2,0-7.4,1.4-9.7,4.2s-3.4,6.7-3.4,11.9.3,4.6.8,6.6,1.3,3.6,2.4,5.1,2.4,2.5,4.1,3.3c1.6.8,3.6,1.1,5.8,1.1,4.2,0,7.4-1.4,9.7-4.2s3.4-6.7,3.4-11.9-.3-4.6-.8-6.6h0ZM55.5,131.6c-1.2,1.7-2.8,2.5-5,2.5h0c-1.2,0-2.2-.3-3-.8s-1.5-1.3-2.1-2.2-1-2.1-1.2-3.4c-.3-1.3-.4-2.7-.4-4.3,0-3.7.6-6.4,1.8-8.1s2.8-2.6,5-2.6,2.3.3,3.1.8,1.5,1.3,2.1,2.3c.5,1,.9,2.1,1.2,3.4s.4,2.7.4,4.2c0,3.8-.6,6.5-1.8,8.1h0Z"/>
  <path d="M102.2,116.9c-.5-2-1.3-3.7-2.4-5.1s-2.4-2.5-4.1-3.3c-1.6-.8-3.6-1.1-5.8-1.1h0c-4.2,0-7.4,1.4-9.7,4.2s-3.4,6.7-3.4,11.9.3,4.6.8,6.6,1.3,3.6,2.4,5.1,2.4,2.5,4.1,3.3c1.6.8,3.6,1.1,5.8,1.1,4.2,0,7.4-1.4,9.7-4.2,2.3-2.8,3.4-6.7,3.4-11.9s-.3-4.6-.8-6.6h0ZM94.9,131.6c-1.2,1.7-2.8,2.5-5,2.5h0c-1.2,0-2.2-.3-3-.8s-1.6-1.3-2.1-2.2-.9-2.1-1.2-3.4c-.3-1.3-.4-2.7-.4-4.3,0-3.7.6-6.4,1.8-8.1,1.2-1.7,2.8-2.6,5-2.6s2.3.3,3.1.8c.8.5,1.5,1.3,2.1,2.3.5,1,.9,2.1,1.2,3.4s.4,2.7.4,4.2c0,3.8-.6,6.5-1.8,8.1h0Z"/>
  <polygon points="140.4 108.8 116.3 108.8 116.3 114.1 125.3 114.1 125.3 139.6 131.4 139.6 131.4 114.1 140.4 114.1 140.4 108.8 140.4 108.8 140.4 108.8"/>
  <path d="M164.7,107.5c-1.6,0-3,.2-4.2.5s-2.4.9-3.3,1.6c-.9.7-1.6,1.7-2.1,2.8s-.8,2.4-.8,3.9.4,3.2,1,4.3,1.6,2,2.6,2.8,2.2,1.4,3.4,1.9,2.4,1,3.4,1.5,1.9,1,2.6,1.6c.7.6,1,1.4,1,2.3s-.5,2.1-1.4,2.8-2.3.9-4.1.9-1.5,0-2.2-.2-1.4-.3-2-.4c-.6-.2-1.2-.4-1.7-.6-.5-.2-.9-.4-1.2-.6l-1.9,5.1c.8.4,2,.8,3.7,1.2s3.6.6,5.8.6,3.2-.2,4.6-.6c1.4-.4,2.6-1,3.6-1.8s1.8-1.8,2.3-3,.8-2.6.8-4.2-.4-3-1-4.1c-.7-1.1-1.6-2-2.6-2.8s-2.2-1.4-3.4-1.9-2.4-1-3.4-1.5-1.9-1-2.6-1.6-1-1.3-1-2.2.4-1.7,1.1-2.2c.8-.6,1.8-.8,3.2-.8s2.9.2,4.2.5,2.3.7,2.9,1.1l1.9-5.1c-1-.6-2.3-1-3.9-1.3-1.6-.3-3.3-.5-5.1-.5h-.2Z"/>
</svg>